<?xml version="1.0" encoding="UTF-8"?>
<!DOCTYPE svg PUBLIC "-//W3C//DTD SVG 1.1//EN" "http://www.w3.org/Graphics/SVG/1.1/DTD/svg11.dtd">
<!-- Creator: CorelDRAW -->
<svg xmlns="http://www.w3.org/2000/svg" xml:space="preserve" width="500px" height="500px" style="shape-rendering:geometricPrecision; text-rendering:geometricPrecision; image-rendering:optimizeQuality; fill-rule:evenodd; clip-rule:evenodd"
viewBox="0 0 192.256 192.256"
 xmlns:xlink="http://www.w3.org/1999/xlink">
 <defs>
  <style type="text/css">
   <![CDATA[
    .str0 {stroke:black;stroke-width:6.4085}
    .str1 {stroke:black;stroke-width:6.4085;stroke-linecap:round}
    .fil2 {fill:none}
    .fil0 {fill:#74B4BA}
    .fil1 {fill:#FEFEFE;fill-rule:nonzero}
   ]]>
  </style>
 </defs>
 <g id="Layer_x0020_1">
  <metadata id="CorelCorpID_0Corel-Layer"/>
  <rect class="fil0" x="-0.000117798" y="-0.000117798" width="192.256" height="192.256"/>
  <path class="fil1 str0" d="M128.416 113.862c9.86503,-12.1517 13.0922,-27.699 10.0794,-41.8721 -5.73499,-26.9801 -32.2709,-44.2132 -59.251,-38.4782 -26.9805,5.73499 -44.2132,32.2709 -38.4782,59.2515 5.73454,26.9801 32.2709,44.2128 59.251,38.4782 4.9257,-1.04727 9.08571,-2.59955 13.3974,-4.93388 7.57112,2.01006 15.1422,4.01967 22.7138,6.02974 -7.71236,-18.4752 -5.14142,-12.317 -7.71236,-18.4752z"/>
  <line class="fil2 str1" x1="77.1763" y1="159.6" x2="118.38" y2= "159.6" />
  <path class="fil2 str1" d="M114.712 138.666c-7.88812,3.51194 -16.4266,5.32671 -25.0613,5.32671 -16.7145,0 -32.7119,-6.79044 -44.3227,-18.8136"/>
  <path class="fil2 str1" d="M131.673 37.3138c12.4973,11.6544 19.5938,27.9751 19.5938,45.0629 0,11.9119 -3.4529,23.5685 -9.94042,33.5584"/>
  <path class="fil2 str0" d="M137.535 43.6006c8.88406,10.9709 13.7317,24.6594 13.7317,38.7762 0,13.3797 -4.35529,26.3961 -12.4074,37.0813"/>
  <path class="fil2 str0" d="M120.459 135.738c-9.36683,5.40755 -19.9921,8.25461 -30.8077,8.25461 -16.7145,0 -32.7119,-6.79044 -44.3227,-18.8136"/>
  <line class="fil2 str0" x1="97.7783" y1="159.6" x2="97.7783" y2= "143.654" />
  <path class="fil0" d="M69.0902 71.0058c0.985958,-0.69939 1.93922,-1.46145 3.16996,-2.14949 3.80214,-2.12451 8.64019,-2.78893 12.9578,-1.80978 2.91564,0.661241 5.23452,1.88563 7.19508,3.3657 6.72095,5.07466 9.3473,14.7726 5.62191,22.4772 -1.15808,2.39473 -2.85069,4.77765 -4.40525,6.0361 -0.971879,0.78704 -1.83295,1.48552 -3.03235,2.19717 -1.81205,1.07543 -2.82844,1.2639 -3.4974,1.65219l4.3076 2.77031c2.18945,2.04821 2.84615,0.447791 4.46656,-0.659425 5.41255,-3.69632 10.6035,-4.07054 17.1891,-4.00196 2.74669,0.0290655 4.30306,0.576315 4.29534,-2.60137l0 -35.1707c0.00590394,-3.01237 0.410551,-3.80804 -2.56095,-4.39753 -6.79589,-1.34746 -14.0768,0.0881049 -19.5829,4.07372 -0.497747,0.360594 -1.59043,1.35336 -2.00007,1.52912l-0.800211 -0.637171c-5.02471,-4.4225 -12.9746,-6.14736 -19.7923,-5.13597 -1.56999,0.232524 -3.19494,0.404647 -3.4865,1.83612 -0.14669,0.718464 -0.0544979,9.18062 -0.0454149,10.6257z"/>
  <path class="fil0" d="M80.1151 76.8852c4.88528,-0.653975 8.77007,2.99875 9.30869,7.19826 0.633538,4.94341 -2.94289,8.78869 -7.18873,9.36455 -4.98111,0.675774 -8.80504,-2.99057 -9.38363,-7.21688 -0.681678,-4.97793 3.03326,-8.77961 7.26366,-9.34593zm-5.4725 20.6265c1.58771,0.674411 2.75714,1.22666 4.76629,1.47508 4.37164,0.5418 8.49895,-0.967792 11.529,-3.91022 5.77678,-5.60965 5.07966,-14.7376 0.0581311,-19.7646 -7.24867,-7.25639 -20.2946,-4.4711 -23.2456,6.09241 -1.14673,4.10324 -0.363773,6.79543 1.03909,10.2615l-1.74393 2.03368c-1.64811,2.13995 -3.22219,3.83029 -4.76947,6.25954 -1.54956,2.43333 1.58816,5.68958 4.12322,4.00605 1.34383,-0.892857 4.51697,-3.26488 5.60874,-4.25538l2.63452 -2.19808z"/>
 </g>
</svg>
