<?xml version="1.0" encoding="UTF-8"?>
<!DOCTYPE svg PUBLIC "-//W3C//DTD SVG 1.1//EN" "http://www.w3.org/Graphics/SVG/1.1/DTD/svg11.dtd">
<!-- Creator: CorelDRAW -->
<svg xmlns="http://www.w3.org/2000/svg" xml:space="preserve" width="34px" height="39px" style="shape-rendering:geometricPrecision; text-rendering:geometricPrecision; image-rendering:optimizeQuality; fill-rule:evenodd; clip-rule:evenodd"
viewBox="0 0 0.632722 0.715935"
 xmlns:xlink="http://www.w3.org/1999/xlink">
 <defs>
  <style type="text/css">
   <![CDATA[
    .str0 {stroke:#373435;stroke-width:0.0370247}
    .str1 {stroke:#373435;stroke-width:0.0370247;stroke-linecap:round}
    .fil1 {fill:none}
    .fil2 {fill:#00BCD4}
    .fil0 {fill:#FEFEFE;fill-rule:nonzero}
   ]]>
  </style>
 </defs>
 <g id="Layer_x0020_1">
  <metadata id="CorelCorpID_0Corel-Layer"/>
  <g id="_310415216">
   <path id="_310107320" class="fil0 str0" d="M0.492234 0.453285c0.0526612,-0.0648643 0.0698724,-0.147858 0.0537984,-0.223526 -0.030617,-0.144009 -0.172264,-0.235991 -0.316274,-0.205374 -0.144009,0.0305951 -0.236013,0.172242 -0.205396,0.316274 0.030617,0.144009 0.172264,0.235991 0.316274,0.205374 0.0262869,-0.00557667 0.0485061,-0.0138651 0.0715126,-0.0263306 0.0404144,0.0107378 0.0808289,0.0214538 0.121243,0.0321916 -0.041158,-0.0986086 -0.027446,-0.0657391 -0.041158,-0.0986086z"/>
   <line id="_310107224" class="fil1 str1" x1="0.218715" y1="0.697411" x2="0.438654" y2= "0.697411" />
   <path id="_310107128" class="fil1 str1" d="M0.419081 0.585659c-0.0420984,0.0187638 -0.087674,0.0284519 -0.133774,0.0284519 -0.0892267,0 -0.174604,-0.0362593 -0.236582,-0.100424"/>
   <path id="_310107032" class="fil1 str1" d="M0.50962 0.0446571c0.0667013,0.0622181 0.104579,0.149345 0.104579,0.24054 0,0.0635959 -0.0184139,0.125814 -0.0530549,0.179131"/>
   <path id="_310106936" class="fil1 str0" d="M0.540915 0.0782264c0.0474126,0.0585659 0.073284,0.131631 0.073284,0.206971 0,0.0714251 -0.023247,0.140904 -0.0662202,0.197939"/>
   <path id="_310106840" class="fil1 str0" d="M0.449764 0.570045c-0.0500151,0.0288675 -0.106722,0.0440666 -0.164457,0.0440666 -0.0892267,0 -0.174604,-0.0362593 -0.236582,-0.100424"/>
   <line id="_310106744" class="fil1 str0" x1="0.328695" y1="0.697411" x2="0.328695" y2= "0.612296" />
   <path id="_310106432" class="fil2" d="M0.190241 0.232624c0.00454881,-0.00321478 0.00896641,-0.00675761 0.0146524,-0.00992865 0.0175829,-0.00981931 0.0399333,-0.0129029 0.0599,-0.00837594 0.0134715,0.0030617 0.0242093,0.00872584 0.0332632,0.0155709 0.0310763,0.0234657 0.0432137,0.0682759 0.0259807,0.103901 -0.00535797,0.0110659 -0.0131653,0.022088 -0.0203603,0.0279052 -0.0044832,0.0036303 -0.00846341,0.00686695 -0.0140182,0.0101473 -0.00837594,0.0049862 -0.0130778,0.00586097 -0.0161614,0.00765425l0.019901 0.0127935c0.0101255,0.0094694 0.0131653,0.00207758 0.0206665,-0.00303983 0.0250185,-0.0170799 0.0490091,-0.0188295 0.0794511,-0.0185014 0.0127061,0.000131216 0.019901,0.00266805 0.0198573,-0.0120281l0 -0.162576c2.18693e-005,-0.0139307 0.00190263,-0.0176048 -0.0118313,-0.0203384 -0.0314262,-0.00623275 -0.065083,0.000415516 -0.0905388,0.0188295 -0.00229627,0.00166207 -0.00734808,0.00625462 -0.00925071,0.00708565l-0.00369591 -0.00295235c-0.0232252,-0.0204478 -0.0599656,-0.0284301 -0.0914792,-0.02375 -0.0072606,0.00107159 -0.0147836,0.00188076 -0.0161177,0.00848528 -0.000677948,0.00332413 -0.000262431,0.0424483 -0.000218693,0.0491184z"/>
   <path id="_310106384" class="fil2" d="M0.241196 0.259807c0.022591,-0.00301796 0.0405457,0.0138651 0.0430387,0.033285 0.00293048,0.0228534 -0.0136027,0.0406113 -0.0332194,0.0432793 -0.0230284,0.00312731 -0.0407206,-0.0138214 -0.0433887,-0.0333507 -0.00314918,-0.0230284 0.0140182,-0.0405894 0.0335694,-0.0432137zm-0.0252809 0.0953501c0.00732621,0.00312731 0.0127498,0.00566414 0.0220224,0.00682322 0.0202072,0.0024931 0.0392991,-0.0044832 0.0532954,-0.0180859 0.0267024,-0.0259151 0.0234876,-0.0681228 0.000262431,-0.091348 -0.0335037,-0.0335475 -0.0937974,-0.0206665 -0.107444,0.0281458 -0.00531424,0.0189825 -0.00168393,0.0314262 0.00478937,0.0474345l-0.0080479 0.00940379c-0.00763238,0.00990679 -0.014893,0.0177141 -0.0220442,0.0289331 -0.00717312,0.0112627 0.00732621,0.0263087 0.0190481,0.0185233 0.00621088,-0.00411143 0.0208852,-0.0150898 0.025937,-0.0196605l0.0121812 -0.0101692z"/>
  </g>
 </g>
</svg>
